<svg xmlns="http://www.w3.org/2000/svg" viewBox="0 0 120 132">
  <defs>
    <linearGradient id="b" x1="18" y1="10" x2="104" y2="122" gradientUnits="userSpaceOnUse"><stop offset="0" stop-color="#3460BE"/><stop offset=".45" stop-color="#1C3577"/><stop offset="1" stop-color="#0B1638"/></linearGradient>
    <linearGradient id="r" x1="10" y1="4" x2="110" y2="128" gradientUnits="userSpaceOnUse"><stop offset="0" stop-color="#F4F6FA"/><stop offset=".35" stop-color="#B9C2CF"/><stop offset=".6" stop-color="#EEF1F6"/><stop offset="1" stop-color="#8E99AB"/></linearGradient>
    <linearGradient id="l" x1="30" y1="110" x2="100" y2="24" gradientUnits="userSpaceOnUse"><stop offset="0" stop-color="#4F86DA"/><stop offset="1" stop-color="#9CC6F7"/></linearGradient>
    <clipPath id="c"><path d="M12 19C29 19 45 13 60 4C75 13 91 19 108 19C108 66 92 102 60 127C28 102 12 66 12 19Z"/></clipPath>
  </defs>
  <path d="M12 19C29 19 45 13 60 4C75 13 91 19 108 19C108 66 92 102 60 127C28 102 12 66 12 19Z" fill="url(#b)"/>
  <g clip-path="url(#c)" fill="none" stroke-linecap="round" stroke-linejoin="round">
    <path d="M33 112C56 98 80 76 95 36" stroke="url(#l)" stroke-width="19"/><path d="M33 112C56 98 80 76 95 36" stroke="url(#b)" stroke-width="14.5"/>
    <path d="M33 112C56 98 80 76 95 36" stroke="url(#l)" stroke-width="9"/><path d="M33 112C56 98 80 76 95 36" stroke="url(#b)" stroke-width="4.6"/>
    <path d="M86 36C66 30 40 34 40 50C40 66 80 62 80 80C80 97 58 102 38 96" stroke="url(#l)" stroke-width="19"/><path d="M86 36C66 30 40 34 40 50C40 66 80 62 80 80C80 97 58 102 38 96" stroke="url(#b)" stroke-width="14.5"/>
    <path d="M86 36C66 30 40 34 40 50C40 66 80 62 80 80C80 97 58 102 38 96" stroke="url(#l)" stroke-width="9"/><path d="M86 36C66 30 40 34 40 50C40 66 80 62 80 80C80 97 58 102 38 96" stroke="url(#b)" stroke-width="4.6"/>
  </g>
  <path d="M12 19C29 19 45 13 60 4C75 13 91 19 108 19C108 66 92 102 60 127C28 102 12 66 12 19Z" fill="none" stroke="url(#r)" stroke-width="4.2" stroke-linejoin="round"/>
  <path d="M97 9L99.6 18.4L109 21L99.6 23.6L97 33L94.4 23.6L85 21L94.4 18.4Z" fill="#fff"/>
</svg>
